<?xml version="1.0" standalone="no"?>
<!DOCTYPE svg PUBLIC "-//W3C//DTD SVG 20010904//EN"
 "http://www.w3.org/TR/2001/REC-SVG-20010904/DTD/svg10.dtd">
<svg version="1.0" xmlns="http://www.w3.org/2000/svg"
 width="840.000000pt" height="859.000000pt" viewBox="0 0 840.000000 859.000000"
 preserveAspectRatio="xMidYMid meet">
<metadata>
Created by potrace 1.16, written by Peter Selinger 2001-2019
</metadata>
<g transform="translate(0.000000,859.000000) scale(0.100000,-0.100000)"
fill="#000000" stroke="none">
<path d="M2200 7965 c-169 -19 -422 -77 -507 -116 -24 -10 -46 -19 -50 -19
-27 0 -356 -155 -393 -185 -8 -6 -37 -24 -65 -40 -187 -106 -491 -387 -654
-604 -50 -67 -91 -124 -91 -126 0 -3 -17 -31 -37 -62 -107 -168 -265 -548
-288 -693 -4 -25 -13 -67 -21 -95 -17 -62 -41 -272 -50 -430 -10 -188 26 -473
87 -700 97 -356 281 -696 529 -976 95 -107 3076 -3079 3089 -3079 3 0 79 147
168 326 l163 326 -22 32 c-13 17 -74 97 -138 177 -63 80 -155 199 -205 264
-49 65 -142 184 -205 265 -235 301 -261 336 -287 390 -35 71 -41 157 -18 236
23 81 70 140 169 211 17 13 40 29 51 37 72 53 462 342 490 364 6 4 69 49 140
101 72 51 134 97 139 102 11 9 3 17 -239 238 -104 96 -197 181 -206 190 -9 9
-63 59 -120 111 -340 312 -377 350 -405 408 -50 103 -42 239 20 327 18 27 143
183 156 195 5 5 64 76 205 246 27 34 64 78 80 99 17 20 37 45 46 54 9 9 65 77
125 151 60 74 114 141 120 147 7 7 79 95 161 195 81 100 165 201 187 225 l39
43 -17 58 c-9 31 -25 86 -36 122 -10 36 -33 119 -50 185 -17 66 -35 129 -40
140 -5 11 -13 40 -19 65 -5 25 -21 86 -35 135 -13 50 -39 142 -56 205 -59 214
-54 206 -155 282 -325 247 -758 426 -1140 469 -144 17 -486 19 -615 4z"/>
<path d="M5630 7964 c-266 -32 -566 -124 -795 -242 -27 -15 -72 -38 -99 -51
l-48 -26 6 -43 c3 -24 15 -76 27 -115 24 -82 56 -197 119 -427 11 -41 29 -106
40 -145 156 -563 180 -654 180 -691 0 -45 -36 -156 -60 -184 -11 -13 -20 -26
-20 -29 0 -3 -12 -20 -28 -36 -23 -27 -97 -115 -127 -153 -5 -7 -17 -21 -26
-30 -9 -9 -65 -78 -125 -152 -60 -74 -114 -139 -120 -145 -6 -5 -80 -95 -165
-200 -84 -104 -158 -194 -165 -200 -6 -5 -60 -71 -120 -145 -59 -74 -113 -138
-119 -143 -12 -9 75 -94 429 -417 33 -30 92 -85 131 -121 38 -36 94 -87 124
-115 30 -27 71 -65 91 -84 21 -19 77 -71 125 -115 99 -90 137 -142 161 -224
20 -70 14 -137 -19 -211 -34 -78 -70 -112 -256 -247 -41 -30 -95 -71 -112 -85
-9 -7 -23 -17 -32 -23 -8 -5 -70 -50 -137 -100 -66 -49 -143 -106 -169 -125
-267 -194 -321 -236 -321 -246 0 -7 36 -59 80 -115 224 -289 256 -330 267
-347 7 -9 52 -67 100 -129 326 -415 353 -459 353 -578 0 -39 -27 -133 -49
-171 -63 -112 -377 -764 -367 -764 39 0 168 120 694 644 320 319 1061 1058
1646 1641 920 917 1075 1076 1152 1180 94 127 202 300 249 400 15 33 39 83 52
110 37 76 118 328 141 440 43 205 55 294 60 476 4 155 1 212 -17 345 -43 310
-113 545 -241 806 -114 232 -263 437 -466 642 -39 39 -86 85 -105 101 -60 53
-219 175 -227 175 -5 0 -17 9 -27 20 -10 11 -22 20 -26 20 -4 0 -34 17 -66 38
-179 117 -457 230 -718 292 -241 57 -593 75 -855 44z"/>
</g>
</svg>
